<?xml version="1.0" encoding="utf-8"?>
<!-- Generator: Adobe Illustrator 19.0.0, SVG Export Plug-In . SVG Version: 6.00 Build 0)  -->
<svg version="1.1" id="layer" xmlns="http://www.w3.org/2000/svg" xmlns:xlink="http://www.w3.org/1999/xlink" x="0px" y="0px"
	 viewBox="-153 -46 652 652" style="enable-background:new -153 -46 652 652;" xml:space="preserve">
<style type="text/css">
	.st0{fill:#0057A2;}
</style>
<path class="st0" d="M62.4,318.7c2,2.1,2.9,4.4,2.9,7.1c0,2.8-0.9,5.3-2.9,7.3c-1.9,2-4.2,2.9-6.7,2.9l-65.8,0.1
	c-12.1,0-18-6.3-18-19.3v-81.1c0-2.8,1-5.3,3-7.4c1.9-2.1,4.3-3.1,6.9-3.1c2.7,0,5,1,6.8,3c1.8,2,2.8,4.4,2.8,7.2v3.5v10.5h63.7
	c2.7,0,5,1,7,3.1c2,2.1,2.9,4.5,2.9,7.4c0,2.9-0.9,5.3-2.9,7.3c-2.1,2.2-4.6,2.5-6.7,2.5h-64v38.6c0,2.3,0.7,4.1,2.1,5.5
	c1.4,1.4,3.2,2.1,5.6,2.1l-0.2,0l0.1,0h0.1h56.3C58.3,315.7,60.6,316.7,62.4,318.7 M116.2,249.4c-2.3,0-4.7,0.3-6.8,2.4
	c-1.9,2-2.8,4.4-2.8,7.3c0,2.8,1,5.3,2.9,7.4c2,2.1,4.3,3.1,6.9,3.1l1.5,0h0.5h34.8c2.3,0,4,0.7,5.4,2.2c1.3,1.4,2,3.3,2,5.6
	l0.1,30.9c0,2.3-0.7,4.1-2.1,5.5c-1.4,1.4-3.3,2.1-5.6,2.1h-46.7c-2.4,0-4.3-0.7-5.7-2.1c-1.4-1.4-2.1-3.2-2.1-5.5l-0.1-72.9
	c0-2.7-0.9-5.1-2.8-7.1c-1.9-2-4.2-3.1-6.8-3.1c-2.7,0-5,1.1-7,3.1c-2,2.1-3,4.6-3,7.4v80.9c0,13,6.3,19.6,18.6,19.6l64.1,0
	c12.3,0,18.5-6.5,18.5-19.4v-48.3c0-12.6-5.9-18.8-18.1-19L116.2,249.4z M291,267.2c1.9-2,2.9-4.4,2.9-7.2c0-2.9-1-5.4-2.9-7.4
	c-2-2.1-4.3-3.2-6.9-3.2l-71.8,0c-12,0.3-17.9,6.7-17.9,19c0,0.2-0.4,26.8-0.4,30.7v27.4c0,2.7,1,5.2,2.9,7.2c1.9,2,4.2,3,6.7,3
	c2.7,0,5-1,6.9-3c1.9-2.1,2.9-4.5,2.9-7.2l0-18.1l0.1-19.6l0-14.1c0-3.3,1.5-5.1,4.5-5.1l66.2,0C286.5,269.6,289,269.3,291,267.2
	 M-43.5,252.3c-1.8-2-4.1-2.9-6.9-2.9h-52.8c-0.9,0.1-1.7,0-2.1,0c-1.4,0-2.2-0.5-3-1.8c-1.8-2.7-5.7-3.7-8.6-3.7
	c-3,0-5.7,1.2-7.6,3.5c-1.8,2.2-2.2,4.4-2.2,7.2v12.2c0,0.5-0.1,1-0.1,1.6v57.5c0,2.8,1,5.2,2.9,7.3c1.9,2.1,4.3,3.1,7,3.1
	c2.6,0,4.9-1,6.8-3c1.9-2,2.8-4.4,2.8-7.3v-48.6c0-2.4,0.8-4.5,2.1-5.8c1.4-1.4,3.2-2.1,5.6-2.1h49.5c2.9,0,5-0.9,6.7-2.7
	c1.9-2,2.9-4.4,2.9-7.2C-40.6,256.9-41.5,254.3-43.5,252.3 M270.2,297.9L270.2,297.9c0-3.1-1.1-5.7-3.3-7.8c-2.1-2-4.7-3.1-7.7-3.1
	h-18.7c-3,0-5.6,1-7.8,3.1c-2.2,2.1-3.3,4.7-3.3,7.8v0c0,3.1,1.1,5.7,3.3,7.8c2.1,2,4.7,3,7.8,3h18.7c3,0,5.6-1,7.7-3
	C269.1,303.6,270.2,301,270.2,297.9L270.2,297.9z M391.6,198.1c45.1,0,81.6,36.6,81.6,81.6c0,45.1-36.5,81.6-81.6,81.6
	c-45.1,0-81.6-36.5-81.6-81.6C309.9,234.7,346.5,198.1,391.6,198.1 M336.2,285.4c-4.8,0-8.7,3.9-8.7,8.7c0,4.8,3.9,8.7,8.7,8.7
	c4.8,0,8.7-3.9,8.7-8.7C344.9,289.3,341,285.4,336.2,285.4z M401.5,274.4c0-5.8-3.2-9-9.1-9l-21.4,0c-1.1,0-2.5,0.2-3.6,1.2
	c-1,1-1.6,2.3-1.5,3.7c0,1.4,0.5,2.7,1.5,3.7c1,1,2.3,1.6,3.7,1.6h0.7h0.2h16.2c1,0,1.6,0.3,2.1,0.8c0.5,0.5,0.7,1.1,0.7,2l0,13.6
	c0,0.9-0.2,1.4-0.8,1.9c-0.5,0.5-1.2,0.7-2.2,0.8l-21.8,0c-1,0-1.7-0.2-2.3-0.7c-0.5-0.5-0.8-1-0.8-1.9l-0.1-32
	c0-1.3-0.5-2.6-1.5-3.6c-1-1-2.2-1.5-3.6-1.5c-1.4,0-2.7,0.5-3.7,1.6c-1,1-1.6,2.3-1.6,3.7v35.6c0,6,3.3,9.2,9.3,9.3h29.9
	c6,0,9.3-3.3,9.3-9.2L401.5,274.4z M445.6,279.8c0,0.1,0,0.1-0.2,0.3c0,0-0.4,0.2-1.1,0.1h-18.6c-0.4,0-3.3-0.1-5.3,1.8
	c-0.9,0.8-1.3,2-1.3,3.2c0,1.4,0.5,2.7,1.4,3.6c1.7,1.7,4.1,1.6,5.1,1.6h18.6c7.2,0.1,11.5-4.1,11.5-11v-2.7c0-7-4.1-10.8-11.5-10.8
	h-26.1c-3.8,0-6.6,0.9-8.6,2.9c-1.8,1.8-2.7,4.5-2.7,7.9l0,0.2l0,16.7c0,7.1,4.1,11.1,11.3,11.1h29.3h0.9h0.8c2.1,0,3.8-0.1,5.2-1.4
	c0.9-0.9,1.3-2.2,1.3-3.8c0-1.3-0.4-2.5-1.3-3.3c-1.6-1.6-4-1.6-5.8-1.7c-0.2,0-0.4,0-0.6,0h-28.1c-1,0-1.6-0.3-2.1-0.7
	c-0.5-0.5-0.7-1-0.7-1.9l-0.1-14.2c0.3-1.3,0.8-1.8,2.6-1.8h24.8c0.4,0,0.6,0.1,1,0.4c0.3,0.2,0.3,0.3,0.3,0.7L445.6,279.8z"/>
</svg>
