<?xml version="1.0" encoding="utf-8"?>
<!-- Generator: Adobe Illustrator 25.0.1, SVG Export Plug-In . SVG Version: 6.00 Build 0)  -->
<svg version="1.0" id="Layer_1" xmlns="http://www.w3.org/2000/svg" xmlns:xlink="http://www.w3.org/1999/xlink" x="0px" y="0px"
	 viewBox="0 0 1092.4 810.4" style="enable-background:new 0 0 1092.4 810.4;" xml:space="preserve">
<style type="text/css">
	.st0{fill:#A39161;}
	.st1{fill:#FFFFFF;}
	.st2{fill:#EE3124;}
	.st3{fill:#A29161;}
	.st4{fill:none;}
</style>
<path class="st0" d="M716.4,326l-2.3-2.4c-20.1-21.2-13.8-46.8-11.4-54.2l0.9-2.8l2.1,2.1c18.7,18.3,13.5,46,11.5,54.1L716.4,326"/>
<path class="st0" d="M725.2,361.2l-0.4-2.9c-2.9-21.1,6.5-30.6,10.6-33.8l2.4-1.8l0.5,2.9c3.8,21.4-6.2,30.8-10.7,33.9L725.2,361.2"
	/>
<path class="st0" d="M716,375.8l-2.5-3.9c-12.2-18.7-11-34.3-9.9-40.2l0.7-3.9l2.5,3c12.9,15.6,11.3,33.4,10,40.4L716,375.8"/>
<path class="st0" d="M729.5,397.8l0.2-2.8c1.9-27.2,16.2-37.4,20.5-39.9l2.6-1.5l0.1,3c1.3,29.9-15.6,38.4-20.8,40.3L729.5,397.8"/>
<path class="st0" d="M721.5,424.1l-2.4-2.1c-16.6-14.2-13.1-35.2-11.7-41.2l0.8-3.4l2.3,2.6c14.3,15.7,12.9,33.9,11.6,41
	L721.5,424.1"/>
<path class="st0" d="M730.8,448.8l0.2-3.2c2.2-32.9,21.7-40.7,27.6-42.3l2.2-0.6l0.1,2.3c1.2,26.1-20.6,39-27.3,42.4L730.8,448.8"/>
<path class="st0" d="M714.7,471.6l-2.3-2.7c-16.8-19.8-9.6-38.3-7-43.5l1.3-2.5l1.8,2.2c12.6,15.3,9.1,35.3,7.1,43.1L714.7,471.6"/>
<path class="st0" d="M717.9,499.7l1.1-3.5c10-32.6,26.6-37.2,31.5-37.9l2-0.3l0,2c0.6,25.1-23.7,35.7-31.2,38.4L717.9,499.7"/>
<path class="st0" d="M696.4,525.2l-1.4-2.8c-13.3-26.9-1.7-42.5,2.2-46.6l1.9-2l1.1,2.5c10.8,24.4,1.2,41.6-2,46.3L696.4,525.2"/>
<path class="st0" d="M701.2,543.6l1.3-3c10-22.9,33.5-28.6,40.4-29.8l3.6-0.6l-1.6,3.2c-11.7,23.8-33.9,28.8-40.4,29.7L701.2,543.6"
	/>
<path class="st0" d="M662.9,569.9l-0.4-3c-3.8-30.1,12.4-41.7,17.4-44.5l2.2-1.2l0.5,2.5c5.1,27-11.9,40.9-17.3,44.5L662.9,569.9"/>
<path class="st0" d="M670.5,587.3c-0.9,0-1.8,0-2.4-0.1l-2.7-0.2l1.2-2.5c10.8-22,31.7-25.3,43.2-25.3c2.5,0,5.1,0.2,7.6,0.5
	l3.3,0.4l-2.2,2.6C699.7,584.9,678.6,587.3,670.5,587.3"/>
<path class="st0" d="M618,616l0.2-3.5c2.1-38,22.5-48.7,28.7-51.1l2.5-1v2.7c0.2,31.3-21.7,47-28.4,51L618,616"/>
<path class="st0" d="M639.1,629.9c-4.9,0-9.8-0.7-14.4-2.2l-2.6-0.9l1.8-2.1c12.8-14.9,29.6-18,41.5-18c4.6,0,9.1,0.5,13.6,1.4
	l3.3,0.7l-2.3,2.4C664.7,626.7,649.4,629.9,639.1,629.9"/>
<path class="st0" d="M590,666.4c-6.4,0.1-12.9-0.9-19-2.8l-3.6-1.2l3.1-2.1c14.9-10,30-15.1,45-15.1c7.1-0.1,14.2,1.2,20.9,3.8
	l3.4,1.4l-3.1,1.9C621.2,661.5,605.4,666.3,590,666.4"/>
<path class="st0" d="M555.2,655.4l0.5-2.8c1.1-6.4,8.6-39,47.4-48.3l3.2-0.8l-1,3.1c-2.9,9.2-15.1,39.7-47.3,48L555.2,655.4"/>
<path class="st0" d="M376,326l2.3-2.4c20.1-21.2,13.8-46.8,11.4-54.2l-0.9-2.8l-2.1,2.1c-18.7,18.3-13.5,46-11.5,54.1L376,326"/>
<path class="st0" d="M367.2,361.2l0.4-2.9c2.9-21.1-6.4-30.6-10.6-33.8l-2.4-1.8l-0.5,2.9c-3.9,21.4,6.2,30.8,10.7,33.9L367.2,361.2
	"/>
<path class="st0" d="M376.4,375.8l2.5-3.9c12.2-18.7,11-34.3,9.9-40.2l-0.7-3.9l-2.5,3c-12.9,15.6-11.3,33.4-10,40.4L376.4,375.8"/>
<path class="st0" d="M362.8,397.8l-0.2-2.8c-1.9-27.2-16.2-37.4-20.5-39.9l-2.6-1.5l-0.1,3c-1.4,29.9,15.6,38.4,20.8,40.3
	L362.8,397.8"/>
<path class="st0" d="M370.9,424.1l2.4-2.1c16.6-14.2,13.1-35.2,11.7-41.2l-0.8-3.4l-2.3,2.6c-14.3,15.7-12.9,33.9-11.6,41
	L370.9,424.1"/>
<path class="st0" d="M361.6,448.8l-0.2-3.2c-2.2-32.9-21.7-40.7-27.6-42.3l-2.2-0.6l-0.1,2.3c-1.2,26.1,20.6,39,27.3,42.4
	L361.6,448.8"/>
<path class="st0" d="M377.7,471.6l2.3-2.7c16.8-19.8,9.6-38.3,7-43.5l-1.3-2.5l-1.8,2.2c-12.6,15.3-9.1,35.3-7.1,43.1L377.7,471.6"
	/>
<path class="st0" d="M374.4,499.7l-1.1-3.5c-10-32.6-26.6-37.2-31.5-37.9l-2-0.3l0,2c-0.6,25.1,23.7,35.7,31.2,38.4L374.4,499.7"/>
<path class="st0" d="M396,525.2l1.4-2.8c13.3-26.9,1.7-42.5-2.2-46.6l-1.9-2l-1.2,2.5c-10.8,24.4-1.2,41.6,2,46.3L396,525.2"/>
<path class="st0" d="M391.2,543.6l-1.4-3c-10-22.9-33.5-28.6-40.4-29.8l-3.6-0.6l1.6,3.2c11.7,23.8,33.9,28.8,40.4,29.7L391.2,543.6
	"/>
<path class="st0" d="M429.5,569.9l0.4-3c3.8-30.1-12.4-41.7-17.4-44.5l-2.2-1.2l-0.5,2.5c-5.1,27,11.9,40.9,17.3,44.5L429.5,569.9"
	/>
<path class="st0" d="M421.9,587.3c0.9,0,1.8,0,2.4-0.1l2.7-0.2l-1.2-2.5c-10.8-22-31.7-25.3-43.2-25.3c-2.5,0-5.1,0.1-7.6,0.5
	l-3.3,0.4l2.2,2.6C392.7,584.9,413.7,587.3,421.9,587.3"/>
<path class="st0" d="M474.4,616l-0.2-3.5c-2.1-38-22.5-48.7-28.7-51.1l-2.5-1v2.7c-0.2,31.3,21.7,47,28.4,51L474.4,616"/>
<path class="st0" d="M453.3,629.9c4.9,0,9.8-0.7,14.4-2.2l2.6-0.9l-1.8-2.1c-12.8-14.9-29.6-18-41.4-18c-4.6,0-9.1,0.5-13.6,1.4
	l-3.3,0.7l2.3,2.4C427.7,626.6,443,629.9,453.3,629.9"/>
<path class="st0" d="M502.4,666.4c6.4,0.1,12.9-0.9,19-2.8l3.6-1.2l-3.1-2.1c-14.9-10-30-15.1-45.1-15.1c-7.1-0.1-14.2,1.2-20.9,3.8
	l-3.4,1.4l3.1,1.9C471.3,661.6,487,666.4,502.4,666.4"/>
<path class="st0" d="M537.2,655.4l-0.5-2.8c-1.1-6.4-8.6-39-47.4-48.3l-3.2-0.8l1,3.1c3,9.2,15.1,39.7,47.3,48L537.2,655.4"/>
<path class="st0" d="M608,694.5c-18.3-6-49.7-17.4-60.5-28.9l-1.3-1.4l-1.3,1.4c-10.8,11.5-42.2,22.9-60.5,28.9
	c-18.5-2.1-36.8-5.1-54.8-8.9l-15.7,65.2c43.5,9.2,87.9,14,132.4,14.1c44.5-0.1,88.8-4.9,132.4-14.1l-15.7-65.2
	C644.9,689.4,626.6,692.4,608,694.5z M512.2,697c12-6.8,23.4-14.6,34-23.4c10.6,8.8,22,16.6,34,23.4c-11.3,0.7-22.6,1.1-34,1.1
	C534.8,698.1,523.4,697.7,512.2,697z"/>
<path class="st0" d="M699.1,660.5l-59.5,13.6l2,8.7c6.7-1.2,13.3-2.4,19.9-3.7l6.3-1.3l11.3,47l33.6-7.7L699.1,660.5z"/>
<path class="st0" d="M430.9,679.1c6.6,1.4,13.3,2.6,19.9,3.7l2-8.7l-59.5-13.6l-13.6,56.6l33.6,7.7l11.3-47L430.9,679.1z"/>
<path class="st1" d="M503.3,719.4l-1.1-4.1c1.4-0.4,2.8-1.1,3.9-2.1c1.1-0.9,2-1.9,2.7-3.1h0.6l3.6,2.3l-2.8,41.2l-5.7-0.4l2.4-34.8
	L503.3,719.4"/>
<path class="st1" d="M525.2,732.3c-2.7-0.7-4.1-2.5-4-5.4l0.3-8.6c0.2-4.9,2.6-7.3,7.2-7.2l3.6,0.1c4.6,0.2,6.9,2.7,6.7,7.7
	l-0.3,8.6c-0.1,2.9-1.4,4.6-4,5.1c2.8,0.9,4.1,2.7,4,5.3l-0.3,9.5c-0.2,4.9-2.6,7.3-7.2,7.1l-4.4-0.2c-4.6-0.2-6.8-2.7-6.7-7.6
	l0.3-9.5C520.5,734.7,522,733,525.2,732.3 M528.4,749.4h1.5c1.7,0.1,2.6-1,2.7-3l0.3-8.1c0.1-2-1-3.1-3.2-3.2s-3.4,0.9-3.5,2.9
	l-0.3,8.2c0,2.1,0.9,3.1,2.6,3.1L528.4,749.4z M527.2,719.7l-0.2,7.2c-0.1,2.1,0.8,3.2,2.5,3.2h0.7c1.6-0.1,2.8-1.4,2.7-2.9
	c0,0,0-0.1,0-0.1l0.2-7.2c0.1-2.1-0.8-3.2-2.5-3.2h-0.7c-1.6-0.1-2.5,0.9-2.6,3L527.2,719.7z"/>
<path class="st1" d="M552.7,744.5l0,1.8c0,2.1,0.9,3.1,2.7,3.1h0.8c1.5,0,2.3-0.9,2.2-2.6l-0.2-10.5l-3.6,2.5h-1.3
	c-4.6,0.1-7-2.4-7.1-7.6l-0.3-12.1c-0.1-5.1,2.1-7.7,6.8-7.8l3.8-0.1c4.6-0.1,7,2.4,7.1,7.4l0.6,28c0.1,5.2-2.1,7.8-6.8,7.9
	l-3.4,0.1c-4.6,0.1-7-2.4-7.1-7.6v-2.4L552.7,744.5 M558.2,733.3l-0.3-14.4c0-1.7-1-2.6-2.9-2.5h-0.7c-1.3-0.2-2.4,0.7-2.5,2
	c0,0.2,0,0.4,0,0.7l0.2,11.2c0,2.1,0.9,3.1,2.7,3.1L558.2,733.3z"/>
<path class="st1" d="M576.2,731.9c-2.8-0.4-4.3-2.1-4.5-5l-0.5-8.6c-0.3-4.9,1.9-7.5,6.5-7.8l3.5-0.2c4.6-0.3,7.1,2,7.4,7l0.5,8.6
	c0.2,2.9-1,4.7-3.5,5.5c2.9,0.6,4.4,2.3,4.5,4.9l0.6,9.5c0.3,4.9-1.8,7.5-6.5,7.8l-4.4,0.3c-4.6,0.3-7.1-2-7.4-6.9l-0.6-9.5
	C571.8,734.7,573.2,732.9,576.2,731.9 M577,719l0.4,7.2c0.1,2.1,1,3.1,2.8,3h0.7c1.5-0.2,2.6-1.6,2.4-3.1c0,0,0-0.1,0-0.1l-0.4-7.2
	c-0.1-2.1-1.1-3.1-2.8-3h-0.6C577.7,715.8,576.9,717,577,719L577,719z M581,748.5l1.5-0.1c1.7-0.1,2.5-1.2,2.4-3.3l-0.5-8.1
	c-0.1-2.1-1.3-3-3.5-2.9c-2.2,0.1-3.3,1.3-3.2,3.2l0.5,8.1C578.3,747.6,579.2,748.6,581,748.5L581,748.5z"/>
<path class="st0" d="M432.1,131.2c1,1.4,23.1,26.5,38.7,44.1c48.8-17.2,102-17.2,150.8,0c15.6-17.6,37.7-42.7,38.7-44.1
	c0.2-0.4,0.5-0.8,0.8-1.2c0.8-1,1.9-2.4,1.6-3.6c-0.2-0.8-0.7-1.6-1.5-2c-2-1.2-6.7,3-9.8,5.9c-0.8,0.7-1.5,1.4-2.2,2
	c-0.5,0.4-1.1,1-1.7,1.6c-5.5,5.7-12.3,10-19.8,12.7c-13.9,5-32.3,3.3-38.6,1.7c-16-4-36.2-16.2-41.4-51.2c0,0-0.2-1.6-1.5-1.6
	s-1.5,1.6-1.5,1.6c-5.2,35-25.4,47.2-41.4,51.2c-6.2,1.6-24.6,3.3-38.6-1.7c-7.5-2.7-14.3-7-19.8-12.7c-0.6-0.6-1.3-1.2-1.7-1.6
	c-0.7-0.6-1.5-1.3-2.2-2c-3-2.8-7.8-7.1-9.8-5.9c-0.8,0.4-1.3,1.2-1.5,2c-0.2,1.2,0.8,2.6,1.6,3.6
	C431.6,130.4,431.9,130.8,432.1,131.2z"/>
<path class="st0" d="M684.5,284.8c-5.4-48.1-11.9-90.8-13-97.6H631c-54.1-23.2-115.4-23.2-169.5,0h-40.5c-1.1,6.9-7.6,49.6-13,97.6
	c-7.7,69.1-9.4,117.7-4.9,140.7c4.7,24.2,13.7,60.6,37.2,96.2c24.2,36.7,58.9,66.3,106.1,90.5c47.2-24.2,81.9-53.8,106.1-90.5
	c23.5-35.6,32.5-71.9,37.2-96.2C693.9,402.6,692.2,353.9,684.5,284.8z M546.2,187.2h-42.7c28.1-6.1,57.2-6.1,85.3,0H546.2z"/>
<path class="st2" d="M470.3,205.7h-33.4c-2.6,17.6-6.8,47.9-10.5,81.2c-10,89.4-7.5,123-5.2,135.1c4.4,22.6,12.8,56.6,34.5,89.5
	c4.5,6.8,9.4,13.4,14.7,19.6L470.3,205.7z"/>
<path class="st1" d="M655.6,205.7h-164v347.4c15.5,14,33.6,26.6,54.6,38.1c40-21.8,69.7-48,90.6-79.7c21.7-33,30.1-66.9,34.5-89.5
	c2.3-12.1,4.8-45.7-5.2-135.1C662.4,253.7,658.1,223.3,655.6,205.7z"/>
<path class="st3" d="M609.9,430.4c-9.1,29.3-23.3,28.5-24,28.4l-0.8,0l-0.3-0.7c-4.1-9.5-10.7-56.8-10.7-81.8
	c0-22.4,8.5-106.5,10-120.9l-34.3,16.8c12,37.3,6.9,161.2,4.1,181.1c-1.8,13.5-5.9,26.8-8.8,36.5c-1.2,4-2.2,7.1-2.7,9.3
	c-1.5,6.4-0.6,10.7,0.1,11.6c0.9-0.4,3.5-2.1,6.2-4c6.7-4.5,16.8-11.2,26.5-16.1c7-3.6,14.8-7,21.1-9.8c6.3-2.8,12.8-5.5,13.4-6.4
	c1.5-1.8,4.5-8.9,5.5-23.1C616,442,612.1,434,609.9,430.4"/>
<path class="st0" d="M547.1,359.6c1.3-12,0.8-36.7,0.6-40.1c-2.3-2.7-17.5-21.1-15.9-42.1c1-13,11.2-28.6,28.3-32
	c27.9-5.5,58,19,63.8,24l24.4-29c-30.7-19.7-63.5-27-97.5-21.6c-26.3,4.2-43.8,25.2-49,42.8c-3.6,12.4-6.8,32.1,7.4,60.2
	C520.8,344.6,541.4,356.6,547.1,359.6 M639.9,385.4c-17.2-23-47.6-39.5-54.9-43.3c-0.5,6.8-1.7,31.1,0.4,38.6
	c3.6,2.5,31.3,22.4,37.2,41.9c5.5,18.1,7.1,45.9-4.9,69.5c-8.4,15.8-20.8,29.3-35.8,39c-21.5,13.9-46.8,19.3-75,15.8
	c4.2,5.3,17.7,19.7,45.5,29c5.2-2.7,57-30.1,83.4-79.4c13.5-25.1,20.1-46.4,20.1-65.2C655.9,414.8,650.7,399.8,639.9,385.4
	L639.9,385.4z"/>
<line class="st4" x1="419" y1="390.9" x2="400.5" y2="390.9"/>
<path class="st0" d="M568.4,61.9h-14.5c-1.2-0.1-2.2-0.8-2.6-1.9l-4.5-13.8c-0.2-0.5-0.4-0.8-0.6-0.8c-0.2,0-0.5,0.3-0.6,0.8
	L541.1,60c-0.4,1.1-1.4,1.8-2.6,1.9H524c-1.1,0-1.3,0.5-0.4,1.2l11.7,8.5c0.9,0.7,1.3,2,1,3.1l-4.5,13.8c-0.3,1,0.1,1.4,1,0.7
	l11.7-8.5c1-0.7,2.3-0.7,3.3,0l11.7,8.5c0.9,0.7,1.3,0.3,1-0.7l-4.5-13.8c-0.3-1.1,0.1-2.4,1-3.1l11.7-8.5
	C569.7,62.4,569.5,61.9,568.4,61.9z"/>
</svg>
